# xmcd
#
# Track frame offsets: 
#        150
#        14483
#        30353
#        48471
#        68013
#        77010
#        89392
#        100944
#        110620
#        127310
#        137473
#        155144
#        166548
#        183902
#        198459
#        216836
#        230810
#        244043
#        261591
#        280521
#
# Disc length: 3885 seconds
#
# Revision: 0
# Processed by: cddbd v1.5.2PL0 Copyright (c) Steve Scherf et al.
# Submitted via: ExactAudioCopy v1.3
#
DISCID=190f2b14
DTITLE=Various Artist - 101 Country And Irish Cd3
DYEAR=1900
DGENRE=Celtic
TTITLE0=The Kilkennys - Galway Girl
TTITLE1=Paddy O'Brian - Devil Woman
TTITLE2=Isla Grant - Partners In Rhyme
TTITLE3=Brendan Quinn - Back Home Again
TTITLE4=Gene Stuart - Try A Little Kindness
TTITLE5=Sonny Knoweles - Just Out Of Reach
TTITLE6=Gene Stuart - Dim Lights Thick Smoke
TTITLE7=Dermot O'Brian - Lisdonvarna Polka
TTITLE8=James kilbane - I Saw The Light 
TTITLE9=The Cotton Mill Boys - Ashes Of Love 
TTITLE10=Derek McCormack - Moonlight In Mayo
TTITLE11=Chris Ball - Catch Me If You Can
TTITLE12=Brendan Bower - The wind Beneath My Wings
TTITLE13=Sean Dunphy - When The Fields Are White With Daisies
TTITLE14=Johnny McEvoy - long Before Your Time
TTITLE15=Sean Wilson - These Tender Years
TTITLE16=Tim Pat - Poor Poor Farmer
TTITLE17=Tony Kenny - What Colour Is The Wind
TTITLE18=DJ Curtin - Noreen Bawn
TTITLE19=Chris Ball - The Golden Jubilee
EXTD=
EXTT0=
EXTT1=
EXTT2=
EXTT3=
EXTT4=
EXTT5=
EXTT6=
EXTT7=
EXTT8=
EXTT9=
EXTT10=
EXTT11=
EXTT12=
EXTT13=
EXTT14=
EXTT15=
EXTT16=
EXTT17=
EXTT18=
EXTT19=
PLAYORDER=
